Coordinates
version=1
nRows=16
nColumns=22
inDegrees=yes

Units are S.I. units (second, meters, Newtons, ...)
If the header above contains a line with 'inDegrees', this indicates whether rotational values are in degrees (yes) or radians (no).

endheader
time	pelvis_tilt	pelvis_list	pelvis_rotation	pelvis_tx	pelvis_ty	pelvis_tz	hip_flexion_r	hip_adduction_r	hip_rotation_r	knee_angle_r	ankle_angle_r	subtalar_angle_r	hip_flexion_l	hip_adduction_l	hip_rotation_l	knee_angle_l	ankle_angle_l	subtalar_angle_l	lumbar_extension	lumbar_bending	lumbar_rotation
      1.40000000	     -1.80796505	     -3.00419896	     -6.79408437	     -1.23752091	      0.93175588	     -0.08253382	     -1.98419156	      1.28715618	      6.05746528	     -4.83855749	      5.12853475	      2.50998132	     -1.98843109	     -3.81098537	    -12.31448187	     -9.66635777	     11.20990782	      4.04890376	     -1.96928411	     -1.45939602	      1.27579894
      1.41000000	     -1.84838742	     -3.00029775	     -6.74566040	     -1.23709023	      0.93161373	     -0.08308065	     -1.97027809	      1.25068680	      6.05474500	     -4.84524957	      5.17654425	      2.53376726	     -1.84424178	     -3.79259855	    -12.24931718	     -9.89137424	     11.30898774	      3.92456872	     -1.97055768	     -1.44019620	      1.25219715
      1.42000000	     -1.88941761	     -2.99798683	     -6.69361002	     -1.23665896	      0.93147394	     -0.08367418	     -1.95976180	      1.21280068	      6.05238663	     -4.84386647	      5.22008469	      2.55856627	     -1.69716950	     -3.77228088	    -12.18360629	    -10.11781332	     11.40478074	      3.79296102	     -1.97810039	     -1.41518729	      1.22755497
      1.43000000	     -1.97455995	     -3.01022213	     -6.64762738	     -1.23620943	      0.93127689	     -0.08429037	     -1.88968136	      1.19592616	      6.00260369	     -4.87092733	      5.25212331	      2.60196447	     -1.50337557	     -3.76993990	    -12.09329524	    -10.35497334	     11.51618908	      3.54392849	     -1.93081133	     -1.36844312	      1.22604782
      1.44000000	     -1.99826315	     -3.00340400	     -6.61219871	     -1.23571835	      0.93116100	     -0.08493937	     -1.90887211	      1.14387260	      6.02579564	     -4.85230252	      5.29747701	      2.62153094	     -1.39138261	     -3.73326457	    -12.04259852	    -10.56274893	     11.58467309	      3.45154567	     -1.95559974	     -1.34750140	      1.20347757
      1.45000000	     -2.08337595	     -3.02264413	     -6.56935036	     -1.23524869	      0.93096272	     -0.08564461	     -1.83896057	      1.12831543	      5.97382848	     -4.88047432	      5.33244306	      2.66768099	     -1.21060053	     -3.72857133	    -11.96367502	    -10.77906809	     11.70108333	      3.19922660	     -1.91969795	     -1.28617977	      1.20765370
      1.46000000	     -2.15073951	     -3.02529542	     -6.54649546	     -1.23474979	      0.93078858	     -0.08636666	     -1.78380425	      1.08899925	      5.96684784	     -4.91438328	      5.37906042	      2.70684088	     -1.06935749	     -3.69731972	    -11.90754159	    -10.96145827	     11.77985367	      3.00128306	     -1.90240213	     -1.24500489	      1.21026978
      1.47000000	     -2.19377225	     -3.02798442	     -6.52776087	     -1.23419673	      0.93063907	     -0.08712680	     -1.76131868	      1.04350887	      5.97104048	     -4.94060266	      5.44021176	      2.73196654	     -0.97427711	     -3.65807815	    -11.86810898	    -11.11453519	     11.85863553	      2.88839172	     -1.91221462	     -1.20467156	      1.20708665
      1.48000000	     -2.27405416	     -3.03590794	     -6.51566487	     -1.23364084	      0.93043545	     -0.08792944	     -1.66528838	      1.00913760	      5.93888130	     -5.03298651	      5.51515851	      2.77214719	     -0.85424500	     -3.62294065	    -11.82382308	    -11.24193809	     11.94907827	      2.69587883	     -1.88327729	     -1.15124586	      1.22831939
      1.49000000	     -2.34757775	     -3.03135414	     -6.51219540	     -1.23303674	      0.93023677	     -0.08877071	     -1.57069745	      0.95808389	      5.92177665	     -5.13696573	      5.60033939	      2.80553555	     -0.76421598	     -3.56636244	    -11.79004691	    -11.33093439	     12.01482972	      2.54543023	     -1.85904120	     -1.11164493	      1.25081052
      1.50000000	     -2.41476105	     -3.02767638	     -6.50975477	     -1.23239409	      0.93004055	     -0.08965399	     -1.46915095	      0.90663873	      5.89563738	     -5.27141942	      5.69420845	      2.83315766	     -0.70052761	     -3.50562126	    -11.76011943	    -11.38781424	     12.07186727	      2.42633389	     -1.84296107	     -1.07062308	      1.27660105
      1.51000000	     -2.48117489	     -3.01373240	     -6.50491316	     -1.23172774	      0.92983498	     -0.09058772	     -1.34920601	      0.84339156	      5.86896062	     -5.44398359	      5.81216567	      2.85895091	     -0.64986123	     -3.42926152	    -11.73073681	    -11.42111491	     12.12718701	      2.32301754	     -1.83068516	     -1.04158836	      1.29585137
      1.52000000	     -2.54599238	     -2.99130327	     -6.49433744	     -1.23102858	      0.92962068	     -0.09157537	     -1.20470343	      0.77126357	      5.83900695	     -5.67059515	      5.95173501	      2.88370440	     -0.61382592	     -3.33907463	    -11.70116180	    -11.43108985	     12.17681899	      2.23025892	     -1.81988903	     -1.02161272	      1.30349727
      1.53000000	     -2.64331570	     -2.94230561	     -6.47451968	     -1.23030442	      0.92934829	     -0.09262741	     -0.99929944	      0.67354235	      5.80459335	     -5.94744447	      6.14275346	      2.91806587	     -0.53948171	     -3.22183014	    -11.68120218	    -11.43995053	     12.20387339	      2.10195985	     -1.76674583	     -1.02505679	      1.25671757
      1.54000000	     -2.71883571	     -2.89222233	     -6.45273100	     -1.22955034	      0.92909086	     -0.09372331	     -0.78324163	      0.57315937	      5.76257972	     -6.29375977	      6.34846450	      2.94777824	     -0.50293659	     -3.09572361	    -11.64352615	    -11.42583821	     12.24458513	      2.00849878	     -1.74264753	     -1.03423481	      1.22997309
      1.55000000	     -2.79133920	     -2.82401495	     -6.42524872	     -1.22876523	      0.92881978	     -0.09487828	     -0.53087037	      0.45349255	      5.71293770	     -6.71638872	      6.60029000	      2.97960966	     -0.47644387	     -2.94467750	    -11.60477981	    -11.39472868	     12.27948507	      1.92496060	     -1.72118382	     -1.06106583	      1.18077739
